<svg xmlns="http://www.w3.org/2000/svg" width="695" height="140" fill="none" viewBox="0 0 695 140">
    <path fill="#46CEFF" fill-rule="evenodd" d="M260.615.823l1.744 14.69c.073.561-.3 1.012-.862 1.084l-14.65 1.684c-.562.072-1.012-.3-1.085-.862l-1.683-14.65c-.073-.562.3-1.013.862-1.085L259.591 0c.523-.011 1.012.3 1.024.823z" clip-rule="evenodd"/>
    <path fill="#E73E6D" fill-rule="evenodd" d="M180.88 113.351c-2.374 3.732-1.36 8.76 2.373 11.134 3.732 2.374 8.677 1.222 11.09-2.572 2.374-3.733 1.36-8.761-2.372-11.135-3.733-2.374-8.678-1.221-11.091 2.573z" clip-rule="evenodd"/>
    <path fill="#FBBF43" fill-rule="evenodd" d="M16.903 40.848c-2.752 4.327-8.457 5.633-12.7 2.936-4.284-2.725-5.477-8.419-2.725-12.746 2.753-4.328 8.458-5.634 12.7-2.936 4.241 2.698 5.477 8.418 2.725 12.746zm-4.542-2.889c1.145-1.8.657-4.155-1.142-5.3-1.757-1.117-4.14-.587-5.285 1.213-1.144 1.8-.614 4.183 1.143 5.3 1.8 1.144 4.14.587 5.284-1.213z" clip-rule="evenodd"/>
    <path fill="#46CEFF" fill-rule="evenodd" d="M607.873 9.933l1.204 10.477c.051.401-.215.724-.617.776l-10.476 1.203c-.402.052-.724-.214-.776-.616l-1.204-10.477c-.052-.401.214-.724.616-.775l10.477-1.204a.785.785 0 0 1 .776.616z" clip-rule="evenodd"/>
    <path fill="#FF9A40" fill-rule="evenodd" d="M694.069 129.671l.92 8.149c.067.3-.189.567-.45.573l-8.148.919c-.301.067-.568-.188-.573-.45l-.92-8.148c-.067-.301.189-.568.45-.573l8.148-.92c.24-.106.507.15.573.45z" clip-rule="evenodd"/>
</svg>
