<svg xmlns="http://www.w3.org/2000/svg" width="476" height="347" fill="none" viewBox="0 0 476 347">
    <path fill="#46CEFF" fill-rule="evenodd" d="M474.081 189.943l1.747 14.704c.072.562-.301 1.013-.863 1.086l-14.665 1.685c-.562.072-1.013-.301-1.086-.863l-1.685-14.665c-.072-.562.301-1.013.863-1.086l14.665-1.685c.523-.011 1.013.301 1.024.824z" clip-rule="evenodd"/>
    <path fill="#E73E6D" fill-rule="evenodd" d="M20.837 334.618c-2.376 3.737-1.361 8.77 2.375 11.146 3.736 2.376 8.686 1.223 11.101-2.575 2.377-3.736 1.362-8.769-2.374-11.146-3.737-2.376-8.686-1.222-11.102 2.575z" clip-rule="evenodd"/>
    <path fill="#FF9A40" fill-rule="evenodd" d="M455.795.475l.921 8.156c.067.301-.189.568-.451.574l-8.156.92c-.301.068-.568-.188-.574-.45l-.921-8.156c-.067-.301.19-.568.451-.574l8.157-.92c.239-.107.506.15.573.45z" clip-rule="evenodd"/>
    <path fill="#FBBF43" fill-rule="evenodd" d="M21.922 26.149c-3.57 5.612-10.969 7.306-16.47 3.807-5.557-3.534-7.104-10.918-3.535-16.53 3.57-5.613 10.97-7.307 16.47-3.808 5.502 3.499 7.105 10.918 3.535 16.53zm-5.89-3.747c1.484-2.334.852-5.39-1.482-6.874-2.278-1.449-5.369-.76-6.853 1.573-1.485 2.334-.797 5.425 1.481 6.874 2.334 1.484 5.37.761 6.854-1.573z" clip-rule="evenodd"/>
</svg>
