<svg xmlns="http://www.w3.org/2000/svg" width="28" height="34" fill="none" viewBox="0 0 28 34">
    <path fill="#FBBF43" fill-rule="evenodd" d="M27.039 12.305a13.557 13.557 0 0 0-5.554-9.72c-.048.431-.192.958-.335 1.484l-1.676 5.746c.814.287 1.628.574 2.49.814.622.24 3.255 1.101 5.075 1.676z" clip-rule="evenodd"/>
    <path fill="#2053F3" fill-rule="evenodd" d="M22.251 25.28c1.724-2.25 2.777-4.261 3.495-5.745.24-.431.431-.91.575-1.389l-10.102-3.543L22.25 25.28zM3.579 4.405A13.389 13.389 0 0 0 .084 11.97a14.926 14.926 0 0 0 .095 3.878s0 .143.096.43c.192.958.479 1.868.862 2.73 1.293 3.256 4.309 8.714 11.203 14.698.431.383 1.054.383 1.485.048 1.58-1.292 3.016-2.537 4.213-3.734L3.578 4.405zM13.345 0c-1.723 0-3.351.383-4.883 1.005l5.219 9.193L15.835.192C15.021.096 14.207 0 13.345 0z" clip-rule="evenodd"/>
</svg>
