<svg xmlns="http://www.w3.org/2000/svg" width="18" height="18" fill="none" viewBox="0 0 18 18">
    <g fill="#303543" clip-path="url(#a)">
        <path d="M8.044 12.678c-1.383-.145-2.63-.489-3.698-1.331-.133-.105-.27-.206-.39-.323-.468-.453-.515-.972-.145-1.506.316-.458.847-.58 1.4-.317.106.05.208.114.306.182 1.99 1.38 4.724 1.418 6.722.062.198-.153.41-.277.654-.341.477-.124.922.053 1.178.474.292.48.288.95-.072 1.322-.552.572-1.217.986-1.955 1.275-.698.273-1.463.41-2.22.502.115.125.169.187.24.26 1.027 1.04 2.06 2.078 3.084 3.122.349.356.422.797.23 1.211-.21.453-.68.75-1.142.719-.292-.02-.52-.168-.722-.373-.776-.787-1.566-1.56-2.325-2.362-.222-.233-.328-.189-.523.014-.78.81-1.573 1.607-2.37 2.4-.358.357-.785.42-1.2.217-.441-.216-.722-.67-.7-1.127.014-.309.165-.545.375-.757 1.017-1.024 2.031-2.05 3.046-3.077.067-.068.13-.14.227-.246z"/>
        <path d="M8.887 9.11C6.419 9.103 4.395 7.04 4.409 4.546 4.424 2.025 6.45-.007 8.941 0c2.497.007 4.502 2.067 4.489 4.614a4.53 4.53 0 0 1-4.543 4.497zm2.242-4.559a2.21 2.21 0 0 0-2.206-2.224A2.213 2.213 0 0 0 6.71 4.578a2.209 2.209 0 0 0 2.223 2.207 2.205 2.205 0 0 0 2.196-2.234z"/>
    </g>
    <defs>
        <clipPath id="a">
            <path fill="#fff" d="M0 0h17.388v17.539H0z" transform="scale(1.02628)"/>
        </clipPath>
    </defs>
</svg>
