<svg xmlns="http://www.w3.org/2000/svg" width="22" height="13" fill="none" viewBox="0 0 22 13">
    <path fill="#303543" fill-rule="evenodd" d="M10.764 12.607h1.315s.397-.044.6-.265c.186-.202.18-.582.18-.582s-.025-1.78.794-2.042c.807-.258 1.844 1.72 2.943 2.48.83.576 1.462.45 1.462.45l2.938-.041s1.537-.096.808-1.315c-.06-.1-.424-.901-2.184-2.55-1.843-1.724-1.596-1.445.623-4.428 1.352-1.817 1.892-2.927 1.723-3.402C21.806.46 20.811.58 20.811.58L17.503.6s-.245-.033-.427.076c-.178.108-.292.358-.292.358s-.524 1.406-1.222 2.602C14.09 6.16 13.5 6.292 13.26 6.136c-.56-.365-.42-1.467-.42-2.25 0-2.445.368-3.464-.716-3.728C11.763.07 11.5.012 10.58.003 9.4-.01 8.4.006 7.833.286c-.376.186-.666.6-.49.624.22.03.714.135.977.495.339.465.327 1.51.327 1.51s.195 2.878-.455 3.236c-.446.245-1.057-.255-2.37-2.544A21.362 21.362 0 0 1 4.64 1.138S4.543.896 4.37.766C4.157.61 3.86.56 3.86.56L.717.58S.245.593.072.8c-.154.184-.012.565-.012.565S2.52 7.173 5.307 10.1c2.555 2.683 5.457 2.507 5.457 2.507z" clip-rule="evenodd"/>
</svg>
